# xmcd CD database file
#
# Track frame offsets:
#	150
#	28932
#	49025
#	78835
#	96742
#	120122
#	162375
#
# Disc length: 2513 seconds
#
# Revision: 0
# Processed by: cddbd v1.4PL0 Copyright (c) Steve Scherf et al.
# Submitted via: CDex 1.50Beta7
#
DISCID=5109cf07
DTITLE=Chico Hamilton - The dealer
DYEAR=1966
DGENRE=Jazz
TTITLE0=the dealer
TTITLE1=for mods only
TTITLE2=a trip
TTITLE3=baby, you know
TTITLE4=larry of arabia
TTITLE5=thoughts
TTITLE6=jim - jeannie
EXTD=YEAR: 1966
EXTT0=
EXTT1=
EXTT2=
EXTT3=
EXTT4=
EXTT5=
EXTT6=
PLAYORDER=
